<?xml version="1.0" encoding="utf-8"?>
<!-- Generator: Adobe Illustrator 15.0.2, SVG Export Plug-In . SVG Version: 6.00 Build 0)  -->
<!DOCTYPE svg PUBLIC "-//W3C//DTD SVG 1.1//EN" "http://www.w3.org/Graphics/SVG/1.1/DTD/svg11.dtd">
<svg version="1.1" id="layer_x5F_www.ABC-color.com"
	 xmlns="http://www.w3.org/2000/svg" xmlns:xlink="http://www.w3.org/1999/xlink" x="0px" y="0px" width="822px" height="567px"
	 viewBox="0 0 822 567" enable-background="new 0 0 822 567" xml:space="preserve">
<rect x="0" display="none" fill="#FFFFFF" width="822" height="567"/>
<text id="image_1_" transform="matrix(1 0 0 1 15.9998 549)" font-family="'MyriadPro-Regular'" font-size="12">www . ABC - color . com</text>
<path fill="#0033FF" stroke="#000000" stroke-miterlimit="10" d="M391.3,455.8c0.3,0.4,0.7,0.7,1.2,0.7h27.8c1,0,1.8-1.1,1.8-2.3
	s-0.8-2.101-1.8-2.101h-27.8c-0.9,0-1.7,0.9-1.7,2.101C390.8,454.8,391,455.3,391.3,455.8z M137.1,132.5c0,3.3,4.5,4.1,4.5,4.1
	s5.7,0.6,14-0.5c8.4-1.2,8-3.5,8-3.5s0-2.7,0-5.6s-5.1-2.7-5.1-2.7c-12.101,0.1-20.601,2.4-21.101,3.3
	C137,128.8,137.1,129.4,137.1,132.5z M230.7,124.3c0,1.2,0.8,2.1,1.8,2.1h27.7c1,0,1.8-0.9,1.8-2.1c0-1.4-0.8-2.3-1.8-2.3h-27.7
	c-0.5,0-1,0.2-1.3,0.6C230.9,123,230.7,123.6,230.7,124.3z M392.5,124.1h27.8c1,0,1.8-1.1,1.8-2.3c0-1.2-0.8-2.3-1.8-2.3h-27.8
	c-0.5,0-0.9,0.3-1.2,0.7c-0.3,0.4-0.5,1-0.5,1.6C390.8,123,391.6,124.1,392.5,124.1z M231.2,453.4c0.3,0.399,0.8,0.6,1.3,0.6h27.7
	c1,0,1.8-0.9,1.8-2.1c0-1.2-0.8-2.301-1.8-2.301h-27.7c-1,0-1.8,1.101-1.8,2.301C230.7,452.5,230.9,453,231.2,453.4z M101,288
	c0.399,79.4,7.5,101.8,10.8,108.8c3.5,6.9,7.9,16.101,23.9,18.8c16.1,2.5,90.8-16.699,100.5-19.3c8.899-2.399,10.199-6.3,9.5-9.899
	c0,0,15.6-2.4,38.399-3.2c47-1.3,134.8,0,165.9,11l0.399,0.1c-0.5,3.4,0,8.9,6.5,11.8c10,4.4,76.8,31.9,97.3,31.7
	c20.301-0.3,30.601-17.5,30.601-17.5s5-8.899,12-25.7c4.6-11.399,14.399-66.6,14.399-104.5V285.7c0-37.9-9.8-93.1-14.399-104.6
	c-7-16.9-12-25.7-12-25.7s-10.3-17.1-30.601-17.3c-20.5-0.3-87.3,27.2-97.3,31.6c-6.5,2.9-7,8.4-6.5,11.8L450,181.6
	c-31.101,11.1-118.9,12.3-165.9,11c-22.8-0.6-38.399-3.2-38.399-3.2c0.6-3.6-0.601-7.4-9.5-9.8c-9.801-2.7-84.5-22-100.5-19.3
	c-16.101,2.6-20.5,11.7-23.9,18.7C108.5,186.2,101.5,208.8,101,288z M512.199,442.6c0-3,2.4-3.3,5.5-2.899c-1.199,0-2.3,0.1-3.3,0.2
	c-3.5,0.3-1.3,6.3-1.3,6.3s-3.7,0.1-4.9,4.7c-0.399,1.399-1.3,5.5-2.399,10.399l-0.3-0.1h-97.7c0,0-140.4-1.8-146.6-1.8
	c-6.2,0-84.101-2-96.9-2c-12.9,0-43.9-5.4-43.9-5.4s-26.5-3.8-44.899-8.4c0,0,1.3-3.899-0.5-5c-1.7-1-7.9-2.899-14.601-6
	c-6.8-3.3-13.5-9.6-17.5-15.199c-2.399-5-4.5-10.7-6.199-17.2c-5.4-21.5-6.7-50.7-6.801-51.8C29.4,343,32.5,340.6,32.5,340.6h0.1
	c0-0.3,0-0.5,0-0.5L31.2,290.2v-4.7l1.399-49.8c0,0,0-0.2,0-0.4h-0.1c0,0-3.101-2.6-2.601-8c0.101-1.1,1.4-30.1,6.801-51.6
	c1.699-6.6,3.699-12.3,6.199-17.3c4-5.6,10.7-11.9,17.5-15c6.7-3.3,12.9-5.1,14.601-6.2c1.8-0.9,0.5-5,0.5-5
	c18.399-4.7,44.899-8.4,44.899-8.4s31-5.3,43.9-5.3s90.8-2,96.9-2c6.199,0,146.6-2,146.6-2h98.1c1.101,5,2,9.1,2.4,10.5
	c1.2,4.4,4.899,4.7,4.899,4.7s-2.199,5.9,1.301,6.2c0.899,0.1,2,0.2,3,0.2c-3,0.4-5.2,0.1-5.2-2.8c0,0-2.7,3.4-4.7,7.4l1-2.6
	c0,0-77.8,0.4-120,0.4c-0.1,0-0.3,0-0.3,0s1.399,0-1.4-1.6c-2.8-1.7-15.7-1.7-20.6-1.7c-4.8,0-4.3,2.9-4.3,2.9
	c-6-0.6-104,2.1-127.7,2.9c-3.2,0-5,0-5,0c-0.1,0-0.4,0-0.8,0c-4.2-0.3-25.7,0.6-31.3,0.9c-5.9,0.1-12.4,3-12.4,3
	c8.6,7.1,31.9,12.8,31.9,12.8c14.399,5.1,27.3,8.9,39.399,11.7c1.5,0.3,3,0.6,4.5,0.9c34,7.7,61,7.7,92.8,7.8L371,177.5
	c0,0,56.1-3.8,75.8-9.8s58.8-22.6,58.8-22.6l0,0c0.6-0.2,20.6-8,23.9-10.8l-4.4-1.8l-1.9-3.2c0.601-0.7,0.101-1.6,0.101-1.6
	c-1.101-5-2.2-9.4-3.4-13.2H580c0,0,13.6,0.9,25.6,0.5c12-0.5,102.3-0.9,125.9,6.8c4,2.5,5,5.5,5,5.5l-0.101,0.5
	c-3.1-0.7-5.5-0.8-6.8-0.7l0.3,0.3c0,0-0.6,2.9,11.3,10.8c7.2,4.8,12.301,8.8,16.4,13.9c2.8,3.4,5.1,7.3,7.4,12.1
	c5.5,12.2,8.8,15,19.6,67.7c0,0,2.6-3.1,3.9-7.6h0.1c0,0,4.8,11.2,8,29.7l-2.1-1c0-0.1,0-0.2,0-0.2l-3.9-1.7l-0.1,0.2
	c0,0,0.899,25.3,0.899,35.5v2c0,10.2-0.899,35.7-0.899,35.7v0.1l5.8-3.199c-1.7,9.5-4.3,19.5-7.8,29.699c-1.301-4.3-3.7-7.1-3.7-7.1
	c-10.8,52.5-14,55.4-19.601,67.5c-2.199,4.9-4.5,8.7-7.3,12.1c-4.2,5.2-9.3,9.2-16.5,14.101c-12,7.8-11.3,10.7-11.3,10.7l-0.3,0.3
	c1.2,0.1,3.2,0.1,5.8-0.4l0.1,0.7l-5.5,5l0.101,0.5c-25.5,7.4-112.8,6.8-124.5,6.3c-12-0.5-25.601,0.5-25.601,0.5H520.3
	c1.1-3.8,2.3-8.2,3.399-13.2c0,0,0.5-0.8-0.1-1.5l1.9-3.1l4.399-1.8c-3.3-2.8-23.3-10.7-23.899-11l0,0c0,0-39.4-16.7-59.101-22.7
	s-75.8-9.8-75.8-9.8l-17.601-0.601c-31.8,0.2-58.799,0.301-92.8,7.801c-1.5,0.3-3,0.6-4.5,0.899c-12.1,2.8-25,6.8-39.399,11.7
	c0,0-23.3,5.7-31.9,12.8c0,0,6.4,2.9,12.4,3.2c5.5,0.2,27,1,31.3,0.9c0.4-0.2,0.601-0.2,0.8-0.2c0,0,1.801,0,5,0.2
	c23.7,0.6,121.6,3.3,127.7,2.699c0,0-0.5,2.9,4.3,2.9c4.9,0,17.8,0,20.6-1.7c1.601-0.899,1.801-1.3,1.801-1.5
	c99.699-0.3,117.3,0,119.899,0.2v0.1c0,0,0.8,0,0-0.1l-0.899-2.3C509.5,439.2,512.199,442.6,512.199,442.6z"/>
<path fill="#000D40" stroke="#000000" stroke-miterlimit="10" d="M794.3,253.2l2.1,1c2.9,17.1,4.5,40.5-0.3,67.2l-5.8,3.199v-0.1
	c0,0,0.899-25.4,0.899-35.7v-2c0-10.2-0.899-35.5-0.899-35.5l0.1-0.2L794.3,253.2z"/>
<path fill="#001A80" stroke="#000000" stroke-miterlimit="10" d="M788.3,351.1c3.6-10.199,6.1-20.199,7.8-29.699
	c4.8-26.7,3.3-50.101,0.3-67.2c-3.2-18.6-8-29.7-8-29.7h-0.1c0.6-2.2,0.899-4.8,0.399-7.6c-1.3-8-6.1-45-20.199-65.3
	c-0.801-1.1-1.601-2.2-2.4-3.3c-11.1-13.6-22.5-18.7-29.8-20.3l0.1-0.5c0,0-1-3-5-5.5c0,0,32.3,1.5,46,22.3
	c13.8,20.8,16.6,34.9,16.6,34.9l0.101,0.4c-0.101,0,2.8,13.4,2.8,13.4l5.8,32l-0.899,6.3c0,0,2.699,40.2,3,56.7c0,0.9,0,1.9,0,2.9
	c0,17.8-3,53.699-3,53.699l0.899,6.301l-9.8,49.5c0,0-1.8,10.5-15.5,31.3c-13.7,20.899-46,22.3-46,22.3c-0.4,0.2-0.9,0.3-1.4,0.4
	L730,454l5.5-5l-0.101-0.7c7.2-1.399,19.101-6.3,30.8-20.6c0.801-1,1.7-2.101,2.4-3.3c14.1-20.4,18.9-57.4,20.2-65.301
	C789.3,356.2,789,353.4,788.3,351.1z"/>
<path fill="#0033FF" stroke="#000000" stroke-miterlimit="10" d="M794.3,253c0,0,0,0.1,0,0.2l-3.9-1.9L794.3,253z"/>
<path fill="#FFA00D" stroke="#000000" stroke-miterlimit="10" d="M788.3,351.1c0.7,2.301,1,5,0.5,8c-1.3,8-6.101,45-20.2,65.301
	l-0.5-0.301l-10.4-0.399c2.7-3.4,5-7.2,7.3-12.101c5.5-12.199,8.801-15,19.601-67.5C784.6,344,787,346.8,788.3,351.1z"/>
<path fill="#FFA00D" stroke="#000000" stroke-miterlimit="10" d="M788.8,216.9c0.5,2.8,0.2,5.3-0.4,7.6c-1.3,4.6-3.9,7.6-3.9,7.6
	c-10.8-52.7-14-55.5-19.6-67.7c-2.3-4.9-4.6-8.7-7.4-12.1l10.5-0.4l0.5-0.4C782.699,172,787.5,209,788.8,216.9z"/>
<path fill="#FF0DA4" stroke="#000000" stroke-miterlimit="10" d="M768.6,151.6l-0.5,0.4l-10.5,0.4c-4.1-5.1-9.3-9.1-16.4-13.9
	c-12-8-11.3-10.8-11.3-10.8l-0.3-0.3c1.3-0.1,3.7,0,6.8,0.7c7.3,1.7,18.6,6.7,29.8,20.3C767,149.4,767.8,150.4,768.6,151.6z"/>
<path fill="#FF0DA4" stroke="#000000" stroke-miterlimit="10" d="M768.1,424.1l0.5,0.301c-0.8,1.1-1.6,2.199-2.4,3.3
	c-11.7,14.3-23.6,19.2-30.8,20.6c-2.6,0.5-4.6,0.601-5.8,0.4l0.3-0.3c0,0-0.6-2.9,11.3-10.7c7.2-4.8,12.4-8.9,16.5-14.101
	L768.1,424.1z"/>
<path id="ABC-color.com" fill="#001A80" stroke="#000000" stroke-miterlimit="10" d="M611.4,285.8v4.4
	c0,37.899-9.8,93.1-14.399,104.5c-7,16.8-12,25.7-12,25.7S574.699,437.6,554.4,437.9c-20.5,0.199-87.3-27.4-97.3-31.7
	c-6.6-2.9-7-8.4-6.5-11.8c0.3-1.7,0.7-2.9,0.7-2.9c11.6-30.1,12.899-102,12.899-102v-2.8c0,0-1.3-71.8-12.899-101.9
	c0,0-0.5-1.3-0.7-3.1c-0.4-3.4,0.1-8.9,6.5-11.8c10-4.4,76.8-31.9,97.3-31.6c20.3,0.1,30.601,17.3,30.601,17.3s5,8.9,12,25.7
	C601.6,192.7,611.4,247.9,611.4,285.8z M597.3,294.4V281.8c-0.3-43.2-8.8-77.3-11.2-88.8c-4.6-22.4-23.3-50.1-23.3-50.1
	c-27.9-0.8-92.9,26-102.3,30.2c-9.301,4.1-4.9,13.9-4.9,13.9c10.8,28.1,11.6,95.5,11.6,95.5v11.1c0,0-0.8,67.801-11.6,96.101
	c0,0-4.3,9.1,4.9,13.3c9.399,4.1,74.399,31,102.3,30.1c0,0,18.7-27.699,23.3-50C588.5,371.6,597,337.4,597.3,294.4z"/>
<path fill="#8099FF" stroke="#000000" stroke-miterlimit="10" d="M597.3,281.8V294.4c-0.3,43-8.8,77.199-11.2,88.8
	c-4.6,22.3-23.3,50-23.3,50c-27.9,0.899-92.9-26-102.3-30.101c-9.301-4.199-4.9-13.3-4.9-13.3c10.8-28.3,11.6-96.1,11.6-96.1v-11.1
	c0,0-0.8-67.4-11.6-95.5c0,0-4.3-9.8,4.9-13.9c9.399-4.2,74.399-31,102.3-30.2c0,0,18.7,27.7,23.3,50.1
	C588.5,204.4,597,238.6,597.3,281.8z"/>
<path fill="#0033FF" stroke="#000000" stroke-miterlimit="10" d="M525.3,132.8l4.399,1.8c-3.3,2.8-23.3,10.6-23.899,10.8l1.7-4.5
	c2-4,4.699-7.4,4.699-7.4c0,2.9,2.2,3.1,5.2,2.8c2.101,0.1,4.2-0.1,5.9-1.2C525.5,134.2,525.3,132.8,525.3,132.8z"/>
<path fill="#0033FF" stroke="#000000" stroke-miterlimit="10" d="M529.699,441.5l-4.399,1.8c0,0,0.2-1.6-2.3-2.6
	c-1.5-0.9-3.4-1.101-5.301-1c-3.199-0.4-5.5-0.101-5.5,2.899c0,0-2.699-3.399-4.6-7.3c0,0,0,0,0-0.1l-1.8-4.601
	C506.4,430.8,526.4,438.7,529.699,441.5z"/>
<path fill="#0026BF" stroke="#000000" stroke-miterlimit="10" d="M523.4,129.6l1.9,3.2c-0.5,1-1.2,1.8-2,2.3
	c-0.601,0.3-1.4,0.5-2.5,0.7c-1.2,0.2-2.4,0.4-3.4,0.5c-1.1,0-2.1-0.1-3-0.2c-3.5-0.3-1.3-6.2-1.3-6.2c4.2,1.4,6.8,1.1,8.4,0.5l0,0
	C522.5,130.3,523.1,129.9,523.4,129.6z"/>
<path fill="#0026BF" stroke="#000000" stroke-miterlimit="10" d="M525.3,443.3l-1.9,3.101c-0.3-0.301-0.8-0.601-1.7-0.801l0,0
	c-1.5-0.6-4.2-1-8.6,0.601c0,0-2.2-6,1.3-6.3c1,0,2.2-0.101,3.3-0.2c1,0.1,2,0.3,3.101,0.5c0.899,0.1,1.6,0.3,2.199,0.6
	C523.9,441.3,524.699,442.1,525.3,443.3z"/>
<path fill="#001A80" stroke="#000000" stroke-miterlimit="10" d="M523.5,128c0,0,0.5,0.8-0.101,1.6l-0.1-0.2c0,0-0.5,0.6-1.8,1.1
	l0,0c-1.5,0.3-4.101,0.3-8.4-0.5c0,0-3.7-0.3-4.9-4.7c-0.399-1.4-1.3-5.5-2.399-10.5c-2.3-10.7-5.4-25.4-5.4-25.4s6.2-3,9.9,2.9
	c2.899,4.5,6.399,11.2,9.7,22.6C521.3,118.6,522.4,123,523.5,128z"/>
<path fill="#001A80" stroke="#000000" stroke-miterlimit="10" d="M523.4,446.5c0.601,0.7,0.101,1.5,0.101,1.5
	c-1.101,5-2.2,9.4-3.4,13.2c-3.4,11.399-6.9,18.1-9.8,22.6c-3.7,6-9.9,2.9-9.9,2.9s3.101-14.7,5.4-25.4c1.1-5,2-9.1,2.399-10.399
	c1.2-4.5,4.9-4.7,4.9-4.7c4.5-0.8,7.1-0.9,8.6-0.601l0,0c1.101,0.5,1.5,1,1.5,1L523.4,446.5z"/>
<path fill="#7D98EF" stroke="#000000" stroke-miterlimit="10" d="M508.5,138.4l-1,2.6c-0.7,1.5-1.4,3-1.7,4.5
	c0,0-39.101,16.5-58.8,22.6c-19.7,6-75.801,9.8-75.801,9.8c0.5-12.6,17.101-39,17.101-39s0.1,0,0.3,0
	C430.699,138.8,508.5,138.4,508.5,138.4z"/>
<path fill="#7D98EF" stroke="#000000" stroke-miterlimit="10" d="M507.5,435.2l0.899,2.3c-2.6-0.2-20.2-0.5-119.899-0.2
	c-0.101-0.2-0.301-0.2-0.301-0.2s-16.6-26.3-17.1-39c0,0,56.1,3.801,75.8,9.801s58.8,22.6,58.8,22.6
	C506.1,432,506.8,433.7,507.5,435.2L507.5,435.2z"/>
<path fill="#0033FF" stroke="#000000" stroke-miterlimit="10" d="M464.199,286.6v2.801c0,0-1.3,71.899-12.899,102
	c0,0-0.5,1.199-0.7,2.899l-0.4-0.1c-31.1-11-118.899-12.3-165.899-11c-22.8,0.8-38.4,3.2-38.4,3.2c-0.6-3.601-4-23.801-5.5-56.9
	c-1.199-22.4-0.6-40.6-0.6-40.6v-2c0,0-0.5-18.2,0.6-40.601c1.5-33.1,4.9-53.3,5.5-56.9c0,0,15.601,2.6,38.4,3.2
	c47,1.3,134.8,0.1,165.899-11l0.4-0.1c0.2,1.8,0.7,3.1,0.7,3.1C462.9,214.8,464.199,286.6,464.199,286.6z"/>
<path fill="#0026BF" stroke="#000000" stroke-miterlimit="10" d="M420.3,119.6c1,0,1.8,1.1,1.8,2.3c0,1.2-0.8,2.3-1.8,2.3h-27.8
	c-0.9,0-1.7-1.1-1.7-2.3c0-0.6,0.2-1.2,0.5-1.6c0.3-0.4,0.7-0.7,1.2-0.7H420.3z"/>
<path fill="#0026BF" stroke="#000000" stroke-miterlimit="10" d="M420.3,452.1c1,0,1.8,0.9,1.8,2.101s-0.8,2.3-1.8,2.3h-27.8
	c-0.5,0-0.9-0.3-1.2-0.7c-0.301-0.399-0.5-1-0.5-1.6c0-1.2,0.8-2.101,1.7-2.101H420.3L420.3,452.1z"/>
<path fill="#0539DB" stroke="#000000" stroke-miterlimit="10" d="M388.6,437.3c0.1,0.2-0.2,0.601-1.8,1.5
	c-2.8,1.7-15.7,1.7-20.601,1.7c-4.8,0-4.3-2.9-4.3-2.9c0-0.1-0.1-0.399-0.2-0.6c0-0.1-0.1-0.2-0.1-0.4c-0.8-3.199-2.8-12.399-4.6-21
	c-0.101-0.6-0.301-1.199-0.4-1.8c-0.1-0.6-0.2-1.2-0.4-1.8c-0.1-0.3-0.1-0.6-0.199-0.9c-0.5-2.3-0.9-4.5-1.301-6.399
	c-0.199-0.9-0.399-1.8-0.5-2.601l0,0c-0.1-0.6-0.199-1.199-0.3-1.699c0-0.101,0-0.2-0.1-0.301c0-0.199-0.101-0.5-0.101-0.699
	c0-0.101,0-0.2-0.1-0.301c0-0.1,0-0.3-0.1-0.399c0-0.101,0-0.2-0.101-0.4c0-0.1,0-0.2-0.1-0.3c0-0.1,0-0.2,0-0.2l0,0
	c0-0.1,0-0.2-0.101-0.3c0-0.1,0-0.1,0-0.1L370.8,398c0.5,12.6,17.1,39,17.1,39S388.4,437.2,388.6,437.3
	C388.5,437.3,388.5,437.3,388.6,437.3z"/>
<path fill="#0539DB" stroke="#000000" stroke-miterlimit="10" d="M386.8,137.2c2.8,1.6,1.399,1.6,1.399,1.6s-16.6,26.3-17.1,39
	l-17.601,0.6v-0.1c0-0.1,0-0.1,0-0.2c0.101-0.6,0.4-1.9,0.7-3.6c0.101-0.4,0.2-0.7,0.2-1.1c0,0,0,0,0-0.1c0.101-0.3,0.101-0.7,0.2-1
	c0.1-0.4,0.1-0.8,0.2-1.2c0.1-0.3,0.1-0.7,0.2-1c2.1-10.4,5.6-27.1,6.6-31c0-0.1,0-0.1,0-0.2s0-0.1,0.1-0.2
	c0-0.1,0.101-0.2,0.101-0.3c0,0-0.5-2.9,4.3-2.9C371.1,135.5,384,135.5,386.8,137.2z"/>
<path fill="#7592DB" stroke="#000000" stroke-miterlimit="10" d="M362,138.4c0,0.1-0.101,0.2-0.101,0.3c0,0.1,0,0.1-0.1,0.2
	c-0.101,0.1,0,0.1,0,0.2c-1.101,3.9-4.5,20.7-6.601,31c-0.1,0.3-0.1,0.7-0.2,1c-0.1,0.4-0.199,0.8-0.199,1.2
	c-0.101,0.3-0.101,0.7-0.2,1c0,0,0,0,0,0.1c-0.101,0.4-0.2,0.8-0.2,1.1c-0.3,1.7-0.6,3-0.7,3.6c0,0.1,0,0.2,0,0.2c0,0.1,0,0.1,0,0.1
	c-31.8-0.2-58.8-0.2-92.8-7.8c-3.6-5.4-12.1-17.2-26.399-29.3C258,140.5,355.9,137.8,362,138.4z"/>
<path fill="#7592DB" stroke="#000000" stroke-miterlimit="10" d="M361.8,437c0.1,0.3,0.2,0.5,0.2,0.6c-6,0.601-104-2.1-127.7-2.699
	c14.3-12.301,22.8-24.101,26.4-29.5c34-7.5,60.999-7.7,92.8-7.801v0.101c0,0.1,0,0.2,0.1,0.3l0,0c0,0.1,0,0.1,0,0.2
	c0,0.1,0,0.2,0.1,0.3c0,0.1,0,0.2,0.101,0.4c0,0.1,0,0.199,0.1,0.399c0,0.101,0,0.2,0.101,0.3c0,0.2,0.1,0.4,0.1,0.7
	c0,0.101,0,0.2,0.1,0.3c0.101,0.5,0.2,1.101,0.301,1.7l0,0c0.199,0.8,0.3,1.601,0.5,2.601c0.399,1.899,0.8,4.1,1.3,6.399
	c0.1,0.3,0.1,0.601,0.2,0.9c0.1,0.6,0.199,1.2,0.399,1.8s0.3,1.2,0.4,1.8c1.8,8.601,3.7,17.8,4.6,21
	C361.699,436.7,361.699,436.9,361.8,437z"/>
<path fill="#0026BF" stroke="#000000" stroke-miterlimit="10" d="M260.1,122c1,0,1.8,0.9,1.8,2.3c0,1.2-0.8,2.1-1.8,2.1h-27.7
	c-1,0-1.8-0.9-1.8-2.1c0-0.7,0.2-1.3,0.5-1.6c0.3-0.4,0.8-0.6,1.3-0.6h27.7V122z"/>
<path fill="#0026BF" stroke="#000000" stroke-miterlimit="10" d="M260.1,449.7c1,0,1.8,1.1,1.8,2.3s-0.8,2.1-1.8,2.1h-27.7
	c-0.5,0-1-0.199-1.3-0.6s-0.5-0.9-0.5-1.5c0-1.2,0.8-2.3,1.8-2.3H260.1z"/>
<path fill="#0539DB" stroke="#000000" stroke-miterlimit="10" d="M260.6,170.6c-1.5-0.3-3-0.6-4.5-0.9
	c-10.399-15.5-22.899-25.1-27.7-28.4c0.4,0,0.601,0,0.801,0c0,0,1.8,0,5,0C248.5,153.4,257,165.2,260.6,170.6z"/>
<path fill="#0539DB" stroke="#000000" stroke-miterlimit="10" d="M256.1,406.3c1.5-0.3,3-0.6,4.5-0.899
	C257,410.8,248.5,422.6,234.2,434.9c-3.2-0.2-5-0.2-5-0.2c-0.101,0-0.4,0-0.801,0.2C236.3,428,241.8,427.6,256.1,406.3z"/>
<path id="www.ABC-color.com" fill="#001A80" stroke="#000000" stroke-miterlimit="10" d="M236.3,179.8c8.9,2.4,10.2,6.2,9.5,9.8
	c-0.6,3.6-4,23.8-5.5,56.9c-1.2,22.4-0.6,40.6-0.6,40.6v2c0,0-0.5,18.2,0.6,40.601c1.5,33.1,4.9,53.3,5.5,56.899
	c0.6,3.601-0.6,7.5-9.5,9.9c-9.8,2.6-84.5,21.8-100.5,19.3c-16.1-2.7-20.5-11.899-23.9-18.8c-3.3-7-10.399-29.5-10.8-108.8
	c0.4-79.2,7.5-101.8,10.8-108.8c3.5-6.9,7.9-16.1,23.9-18.7C151.9,157.8,226.5,177,236.3,179.8z M236.6,393.1
	c7.2-1.8,5.9-7.1,5.9-7.1s-3.7-23.8-5.3-55.3c-1-21.5-0.9-36-0.9-36L236,285c0,0,0.2-18.1,1.2-39.6c1.5-31.4,5-54.1,5-54.1
	s2.699-6.1-5.7-8.3c-9.4-2.6-83.2-19.9-98.601-18.3c-15.399,1.7-20.1,10-23.3,16.6c-3.1,6.8-9.899,28.4-10.3,104.601v4.399
	c0.4,76.3,7.2,97.9,10.3,104.5c3.2,6.601,7.4,17.3,22.9,17.9C153.7,413.3,227.1,395.5,236.6,393.1z"/>
<path fill="#7B97EF" stroke="#000000" stroke-miterlimit="10" d="M242.5,386c0,0,1.3,5.3-5.9,7.1c-9.399,2.4-82.899,20.2-99,19.601
	c-15.5-0.7-19.7-11.3-22.899-17.9c-3.101-6.6-9.9-28.3-10.301-104.5V285.9c0.4-76.101,7.2-97.8,10.301-104.601
	c3.199-6.6,7.899-14.9,23.3-16.6c15.399-1.7,89.2,15.7,98.6,18.3c8.4,2.3,5.7,8.3,5.7,8.3s-3.5,22.7-5,54.1
	c-1,21.5-1.2,39.6-1.2,39.6l0.3,9.7c0,0-0.1,14.5,0.9,36C238.8,362.3,242.5,386,242.5,386z"/>
<path fill="#6A88C4" stroke="#000000" stroke-miterlimit="10" d="M228.5,141.3c4.8,3.3,17.3,12.9,27.7,28.4
	c-12.101-2.9-25-6.6-39.4-11.7c0,0-23.3-5.7-31.9-12.8c0,0,6.4-2.9,12.4-3C202.7,141.9,224.2,141,228.5,141.3z"/>
<path fill="#6A88C4" stroke="#000000" stroke-miterlimit="10" d="M256.1,406.3C241.7,427.6,236.3,428,228.4,434.9
	C224.2,435,202.7,434.1,197.1,434c-5.899-0.3-12.399-3.2-12.399-3.2c8.6-7.1,31.899-12.8,31.899-12.8
	C231.2,413.1,244,409.2,256.1,406.3z"/>
<path fill="#0539DB" stroke="#000000" stroke-miterlimit="10" d="M163.6,132.7c0,0,0.4,2.3-8,3.5c-8.399,1.1-14,0.5-14,0.5
	s-4.5-0.8-4.5-4.1c0-3.2-0.1-3.8,0.3-4.8c0.5-0.9,9-3.2,21.101-3.3c0,0,5.1-0.1,5.1,2.7C163.6,130,163.6,132.7,163.6,132.7z"/>
<path fill="#001A80" stroke="#000000" stroke-miterlimit="10" d="M112.2,122.4c0,0,4.1,0,8.1,1.5c0,0-26.5,3.8-44.9,8.4
	C69,134,63.6,135.8,60.5,137.4c-6.7,4.1-12.9,11-17.601,21.1c-2.399,5-4.5,10.7-6.199,17.3c-5.4,21.5-6.7,50.5-6.801,51.6
	c-0.5,5.4,2.601,8,2.601,8h0.1c0,0.3,0,0.4,0,0.4L31.2,285.6v4.7l1.399,49.9c0,0,0,0.2,0,0.5h-0.1c0,0-3.101,2.399-2.601,7.8
	c0.101,1.1,1.4,30.2,6.801,51.8c1.699,6.5,3.699,12.2,6.199,17.2c4.801,10.1,10.9,17,17.601,21.1c3.1,1.7,8.5,3.5,14.899,5.101
	c18.4,4.7,44.9,8.399,44.9,8.399c-4,1.7-8.1,1.7-8.1,1.7S75.9,449.3,55.6,443.4c-20.5-6-26.6-24.2-26.6-24.2
	C13.7,381.4,13.7,194.9,29,157c0,0,6.2-18.2,26.6-24.1C75.9,126.8,112.2,122.4,112.2,122.4z"/>
<path fill="#FF0DA4" stroke="#000000" stroke-miterlimit="10" d="M75.4,132.4c0,0,1.301,4.1-0.5,5c-1.699,1.1-7.899,2.9-14.6,6.2
	c-6.8,3.2-13.5,9.5-17.5,15c4.8-10.1,10.9-17,17.6-21.1C63.6,135.8,69,134,75.4,132.4z"/>
<path fill="#FF0DA4" stroke="#000000" stroke-miterlimit="10" d="M74.9,438.7c1.801,1,0.5,5,0.5,5C69,442,63.6,440.2,60.5,438.6
	c-6.7-4.1-12.9-11-17.601-21.1c4,5.6,10.7,11.9,17.5,15.2C67.1,435.8,73.2,437.6,74.9,438.7z"/>
<g>
	<path d="M593.699,173.3c14.801,2.6,29.601,5.5,44.4,8.5s29.5,6.2,44.2,9.6s29.3,7.1,43.8,11.3c7.2,2.1,14.4,4.4,21.5,7
		c3.5,1.3,7,2.7,10.5,4.2c3.4,1.6,6.8,3.3,9.9,5.5c-3.101-2.2-6.5-3.9-9.9-5.4s-7-2.9-10.5-4.2c-7.1-2.5-14.3-4.8-21.5-6.8
		c-14.5-4.1-29.1-7.7-43.8-11.1c-14.7-3.3-29.4-6.4-44.2-9.3s-29.6-5.7-44.4-8.3V173.3z"/>
</g>
<path fill="none" stroke="#000000" stroke-width="0.5" stroke-linejoin="round" stroke-miterlimit="2.4142" d="M573.3,143.5
	c0,0,128-1.2,178.3,9l16.5-0.6"/>
<path fill="none" stroke="#000000" stroke-width="0.5" stroke-linejoin="round" stroke-miterlimit="2.4142" d="M36,178.6
	c0,0,13.399-5.3,35.8-5.9c22.3-0.6,43.9-0.6,43.9-0.6"/>
<path fill="none" stroke="#000000" stroke-linejoin="round" stroke-miterlimit="2.4142" d="M784.6,232.1c0,0,1.4,16.7,5.3,19
	c3.9,2.4,3.9,1.7,3.9,1.7"/>
<path fill="none" stroke="#000000" stroke-width="0.5" stroke-linejoin="round" stroke-miterlimit="2.4142" d="M378.8,114.9v3
	c0,0-4.9,3.6-4.9,17.9c0,0-12.7,29.9-13.1,42.3"/>
<g>
	<path d="M593.6,401.8c14.8-2.5,29.7-5.3,44.4-8.2c14.8-2.899,29.5-6,44.199-9.3C696.9,381,711.5,377.4,726,373.2
		c7.199-2.101,14.399-4.3,21.5-6.9c3.5-1.3,7.1-2.6,10.5-4.2c3.399-1.6,6.8-3.199,9.899-5.399c-3,2.2-6.399,3.899-9.899,5.5
		c-3.4,1.6-6.9,2.899-10.5,4.3c-7.101,2.6-14.301,4.9-21.5,7c-14.5,4.2-29.101,7.9-43.801,11.3C667.5,388.2,652.8,391.4,638,394.4
		c-14.801,3-29.601,5.8-44.4,8.5V401.8z"/>
</g>
<path fill="none" stroke="#000000" stroke-width="0.5" stroke-linejoin="round" stroke-miterlimit="2.4142" d="M573.3,432.5
	c0,0,128,1.2,178.3-9l16.5,0.6"/>
<path fill="none" stroke="#000000" stroke-width="0.25" stroke-linejoin="round" stroke-miterlimit="2.4142" d="M138,134.4
	c-7,0.7-14.101,1.5-21.101,2.3C83.7,140.8,55,143.9,45.2,160"/>
<path fill="none" stroke="#000000" stroke-width="0.25" stroke-linejoin="round" stroke-miterlimit="2.4142" d="M507.3,125.6
	c-101.9-0.6-274.7,2.7-287.2,3.7c-5.6,0.4-28.6,1-56.399,2.9"/>
<path fill="none" stroke="#000000" stroke-width="0.25" stroke-linejoin="round" stroke-miterlimit="2.4142" d="M523.3,450.2
	c13.7-0.101,25.5-0.4,34.899-0.7c77.101-2.7,174.5,5.7,199.301-33.4c24.699-39.1,22.899-128,22.899-128s1.8-89.1-22.899-128.2
	c-24.7-39.1-122.2-30.5-199.301-33.4c-9.5-0.4-21.699-0.6-35.6-0.7"/>
<path fill="none" stroke="#000000" stroke-width="0.25" stroke-linejoin="round" stroke-miterlimit="2.4142" d="M45.2,416
	c9.8,16.1,38.5,19.3,71.699,23.5c44.9,5.6,94.601,6.6,103.2,7.4c12.601,0.899,186.8,4.199,288.6,3.6"/>
<path fill="none" stroke="#000000" stroke-width="0.5" stroke-linejoin="round" stroke-miterlimit="2.4142" d="M36,397.6
	c0,0,13.399,5.101,35.8,5.9c22.3,0.6,43.9,0.6,43.9,0.6"/>
<path fill="none" stroke="#000000" stroke-linejoin="round" stroke-miterlimit="2.4142" d="M784.6,344c0,0,1.4-16.8,5.3-19.1
	c3.9-2.301,3.9-1.7,3.9-1.7"/>
<path fill="none" stroke="#000000" stroke-width="0.5" stroke-linejoin="round" stroke-miterlimit="2.4142" d="M378.8,461.2v-3
	c0,0-4.9-3.8-4.9-18.101c0,0-12.7-29.899-13.1-42.3"/>
<path fill="none" stroke="#000000" stroke-width="0.25" stroke-linejoin="round" stroke-miterlimit="2.4142" d="M792.3,323.7
	c0,0,1-17.2,1-34.8v-2c0-17.5-1-34.601-1-34.601"/>
<line fill="none" stroke="#000000" stroke-width="0.25" stroke-linejoin="round" stroke-miterlimit="2.4142" x1="534" y1="116" x2="537" y2="136"/>
<line fill="none" stroke="#000000" stroke-width="0.25" stroke-linejoin="round" stroke-miterlimit="2.4142" x1="537" y1="441" x2="538" y2="460"/>
<polyline fill="none" stroke="#000000" stroke-width="0.25" stroke-miterlimit="10" points="223,120 224,129 232,138 "/>
<polyline fill="none" stroke="#000000" stroke-width="0.25" stroke-miterlimit="10" points="221,458 220.1,446.8 232,436 "/>
</svg>
